<?xml version="1.0" encoding="UTF-8" standalone="no"?>
<!DOCTYPE svg PUBLIC "-//W3C//DTD SVG 1.1//EN" "http://www.w3.org/Graphics/SVG/1.1/DTD/svg11.dtd">
<svg width="100%" height="100%" viewBox="0 0 212 212" version="1.1" xmlns="http://www.w3.org/2000/svg" xmlns:xlink="http://www.w3.org/1999/xlink" xml:space="preserve" xmlns:serif="http://www.serif.com/" style="fill-rule:evenodd;clip-rule:evenodd;stroke-linejoin:round;stroke-miterlimit:2;">
    <g transform="matrix(1,0,0,1,-82,-418)">
        <rect id="Color" x="0" y="0" width="1000" height="1000" style="fill:none;"/>
        <g id="Color1" serif:id="Color">
            <g transform="matrix(-0.504649,0,0,0.55206,388.391,372.856)">
                <path d="M247.277,364.417L247.277,133.085L308.71,116.624L547.165,180.518L547.165,265.582C547.165,265.582 523.841,279.073 523.841,284.553C523.841,289.191 547.165,298.466 547.165,298.466L547.165,416.292L494.554,430.675L247.277,364.417Z" style="fill:rgb(242,192,120);"/>
            </g>
            <g transform="matrix(-0.504649,0,0,0.55206,388.391,372.856)">
                <path d="M561.599,277.675C568.316,275.43 572.784,269.588 572.784,263.05L572.784,180.518C572.784,168.922 564.996,158.773 553.796,155.772L315.341,91.878C310.997,90.714 306.423,90.714 302.079,91.878L240.646,108.339C229.446,111.34 221.658,121.489 221.658,133.085L221.658,198.773C221.658,204.858 226.791,212 230.73,216.63C226.827,221.219 221.658,225.83 221.658,231.97L221.658,364.417C221.658,376.012 229.446,386.162 240.646,389.163L487.923,455.421C492.31,456.596 496.93,456.585 501.31,455.387L553.921,441.004C565.059,437.959 572.784,427.839 572.784,416.292L572.784,306.659C572.784,300.121 568.316,294.279 561.599,292.034C552.141,288.873 540.117,284.855 540.117,284.855C540.117,284.855 552.141,280.836 561.599,277.675ZM494.479,408.923C494.497,411.977 492.934,414.86 490.265,416.697C487.596,418.535 484.134,419.111 480.927,418.252C437.007,406.484 299.981,369.768 264.886,360.364C259.993,359.053 256.632,354.95 256.632,350.29C256.632,323.602 256.632,238.133 256.632,238.133L283.712,246.065L256.632,212.024L256.632,148.73C256.632,145.627 258.229,142.705 260.944,140.841C263.659,138.978 267.175,138.391 270.435,139.257C312.786,150.504 440.503,184.419 481.638,195.343C489.29,197.375 494.554,203.784 494.554,211.068C494.554,230.977 494.554,268.066 494.554,268.066L451.216,284.733L493.83,296.232C493.83,296.232 494.294,376.811 494.479,408.923Z"/>
            </g>
        </g>
    </g>
</svg>
