<?xml version="1.0" encoding="UTF-8" standalone="no"?>
<!DOCTYPE svg PUBLIC "-//W3C//DTD SVG 1.1//EN" "http://www.w3.org/Graphics/SVG/1.1/DTD/svg11.dtd">
<svg width="100%" height="100%" viewBox="0 0 828 212" version="1.1" xmlns="http://www.w3.org/2000/svg" xmlns:xlink="http://www.w3.org/1999/xlink" xml:space="preserve" xmlns:serif="http://www.serif.com/" style="fill-rule:evenodd;clip-rule:evenodd;stroke-linejoin:round;stroke-miterlimit:2;">
    <g transform="matrix(1,0,0,1,-92,-1476)">
        <g id="Color---Text-white" serif:id="Color - Text white" transform="matrix(1,0,0,1,0,1059.4)">
            <rect x="0" y="0" width="1000" height="1000" style="fill:none;"/>
            <g transform="matrix(1,0,0,1,-63.8292,-135.994)">
                <path d="M360.528,592.175L360.528,622.077L389.3,622.077L389.3,676.265C389.3,678.113 390.798,679.611 392.646,679.611C398.4,679.611 410.103,679.611 415.856,679.611C417.704,679.611 419.202,678.113 419.202,676.265C419.202,663.98 419.202,622.077 419.202,622.077L447.966,622.077L447.966,595.521C447.966,594.634 447.613,593.783 446.986,593.155C446.358,592.528 445.507,592.175 444.62,592.175C428.602,592.175 360.528,592.175 360.528,592.175Z" style="fill:white;fill-rule:nonzero;"/>
                <path d="M509.385,595.437C508.894,594.133 507.647,593.269 506.253,593.269C499.417,593.269 479.377,593.269 472.54,593.269C471.147,593.269 469.899,594.133 469.408,595.437C465.138,606.792 445.318,659.489 439.355,675.342C438.968,676.37 439.111,677.522 439.736,678.425C440.361,679.328 441.389,679.866 442.487,679.866C450.244,679.866 465.183,679.866 470.914,679.866C472.307,679.866 473.555,679.003 474.045,677.699C476.619,670.863 484.396,650.204 484.396,650.204L494.4,650.204C494.4,650.204 502.164,670.862 504.735,677.7C505.225,679.004 506.473,679.868 507.867,679.868C513.6,679.868 528.548,679.868 536.308,679.868C537.406,679.868 538.434,679.33 539.059,678.427C539.684,677.524 539.827,676.372 539.44,675.344C533.477,659.49 513.656,606.792 509.385,595.437ZM484.819,636.001L489.398,623.868L493.974,636.001L484.819,636.001Z" style="fill:white;fill-rule:nonzero;"/>
                <path d="M619.288,637.853C619.288,637.853 635.64,632.015 635.64,615.493C635.64,598.972 619.136,592.177 601.964,592.177L548.624,592.177C547.737,592.177 546.886,592.53 546.258,593.157C545.631,593.785 545.278,594.636 545.278,595.523C545.278,609.404 545.278,662.381 545.278,676.263C545.278,678.111 546.777,679.609 548.624,679.609C554.605,679.609 567.06,679.609 573.04,679.609C574.888,679.609 576.386,678.111 576.386,676.263C576.386,667.572 576.386,644.958 576.386,644.958L591.913,644.958C591.913,644.958 599.857,644.325 599.857,650.146L599.857,676.265C599.857,678.113 601.355,679.611 603.203,679.611C610.162,679.611 626.129,679.611 633.1,679.611C633.997,679.611 634.857,679.251 635.486,678.611C636.115,677.972 636.461,677.107 636.446,676.21C636.197,667.013 634.15,642.055 619.288,637.853ZM600.388,628.007C599.601,628.8 598.526,629.243 597.409,629.239L576.384,629.239L576.384,620.818L597.409,620.818C599.112,620.82 600.648,621.845 601.3,623.419C601.952,624.991 601.593,626.804 600.388,628.009L600.388,628.007Z" style="fill:white;fill-rule:nonzero;"/>
                <path d="M642.999,592.175C642.112,592.175 641.261,592.528 640.633,593.155C640.006,593.783 639.653,594.634 639.653,595.521C639.653,603.326 639.653,622.077 639.653,622.077L668.425,622.077L668.425,676.265C668.425,678.113 669.923,679.611 671.771,679.611C677.525,679.611 689.228,679.611 694.981,679.611C696.829,679.611 698.327,678.113 698.327,676.265C698.327,663.98 698.327,622.077 698.327,622.077L727.091,622.077L727.091,595.521C727.091,594.634 726.738,593.783 726.111,593.155C725.483,592.528 724.632,592.175 723.745,592.175C709.863,592.175 656.881,592.175 642.999,592.175Z" style="fill:white;fill-rule:nonzero;"/>
                <path d="M763.477,679.738C764.365,679.738 765.216,679.385 765.843,678.758C766.471,678.13 766.823,677.279 766.823,676.391L766.823,595.521C766.823,594.634 766.471,593.783 765.843,593.155C765.216,592.528 764.365,592.175 763.477,592.175C756.962,592.175 742.64,592.175 736.124,592.175C735.237,592.175 734.386,592.528 733.758,593.155C733.131,593.783 732.778,594.634 732.778,595.521C732.778,609.417 732.778,662.495 732.778,676.391C732.778,677.279 733.131,678.13 733.758,678.758C734.386,679.385 735.237,679.738 736.124,679.738C742.64,679.738 756.962,679.738 763.477,679.738Z" style="fill:white;fill-rule:nonzero;"/>
                <path d="M839.99,592.14C838.142,592.14 836.644,593.638 836.644,595.486C836.644,603.657 836.644,623.966 836.644,623.966C836.644,623.966 820.612,599.918 816.42,593.63C815.8,592.699 814.755,592.14 813.636,592.14C807.628,592.14 788.127,592.14 780.249,592.14C778.402,592.14 776.903,593.638 776.903,595.486L776.903,676.454C776.903,678.302 778.402,679.8 780.249,679.8C787.111,679.8 802.707,679.8 809.569,679.8C811.417,679.8 812.915,678.302 812.915,676.454C812.915,666.345 812.915,636.808 812.915,636.808C812.915,636.808 831.736,670.124 836.242,678.1C836.835,679.15 837.948,679.8 839.155,679.8C844.787,679.8 861.11,679.8 868.194,679.8C869.082,679.8 869.933,679.448 870.56,678.82C871.188,678.193 871.54,677.341 871.54,676.454C871.54,662.547 871.54,609.393 871.54,595.486C871.54,593.638 870.042,592.14 868.194,592.14C861.527,592.14 846.656,592.14 839.99,592.14Z" style="fill:white;fill-rule:nonzero;"/>
                <path d="M976.493,622.165L976.493,595.521C976.493,594.634 976.141,593.783 975.513,593.155C974.886,592.528 974.035,592.175 973.147,592.175C958.45,592.175 899.697,592.175 884.999,592.175C884.112,592.175 883.261,592.528 882.633,593.155C882.006,593.783 881.653,594.634 881.653,595.521C881.653,609.432 881.653,662.61 881.653,676.52C881.653,677.408 882.006,678.259 882.633,678.886C883.261,679.514 884.112,679.866 884.999,679.866C899.697,679.866 958.45,679.866 973.147,679.866C974.035,679.866 974.886,679.514 975.513,678.886C976.141,678.259 976.493,677.408 976.493,676.52C976.493,668.699 976.493,649.876 976.493,649.876L911.642,649.876L911.642,642.755L950.458,642.755L950.458,629.288L911.642,629.288L911.642,622.165L976.493,622.165Z" style="fill:white;fill-rule:nonzero;"/>
            </g>
            <g transform="matrix(1,0,0,1,-217.426,-98.8295)">
                <g transform="matrix(1.11,0,0,1,-59.436,0)">
                    <g transform="matrix(66.6667,0,0,66.6667,735.527,700.77)">
                    </g>
                    <text x="540.327px" y="700.77px" style="font-family:'Helvetica-Light', 'Helvetica', sans-serif;font-weight:300;font-size:66.667px;fill:white;stroke:white;stroke-width:1.1px;">s<tspan x="576.394px 597.661px 637.461px 680.927px 698.461px " y="700.77px 700.77px 700.77px 700.77px 700.77px ">tudio</tspan></text>
                </g>
            </g>
            <g transform="matrix(-0.504649,0,0,0.55206,388.391,372.856)">
                <path d="M247.277,364.417L247.277,133.085L308.71,116.624L547.165,180.518L547.165,265.582C547.165,265.582 523.841,279.073 523.841,284.553C523.841,289.191 547.165,298.466 547.165,298.466L547.165,416.292L494.554,430.675L247.277,364.417Z" style="fill:rgb(242,192,120);"/>
            </g>
            <g transform="matrix(-0.504649,0,0,0.55206,388.391,372.856)">
                <path d="M561.599,277.675C568.316,275.43 572.784,269.588 572.784,263.05L572.784,180.518C572.784,168.922 564.996,158.773 553.796,155.772L315.341,91.878C310.997,90.714 306.423,90.714 302.079,91.878L240.646,108.339C229.446,111.34 221.658,121.489 221.658,133.085L221.658,198.773C221.658,204.858 226.791,212 230.73,216.63C226.827,221.219 221.658,225.83 221.658,231.97L221.658,364.417C221.658,376.012 229.446,386.162 240.646,389.163L487.923,455.421C492.31,456.596 496.93,456.585 501.31,455.387L553.921,441.004C565.059,437.959 572.784,427.839 572.784,416.292L572.784,306.659C572.784,300.121 568.316,294.279 561.599,292.034C552.141,288.873 540.117,284.855 540.117,284.855C540.117,284.855 552.141,280.836 561.599,277.675ZM494.479,408.923C494.497,411.977 492.934,414.86 490.265,416.697C487.596,418.535 484.134,419.111 480.927,418.252C437.007,406.484 299.981,369.768 264.886,360.364C259.993,359.053 256.632,354.95 256.632,350.29C256.632,323.602 256.632,238.133 256.632,238.133L283.712,246.065L256.632,212.024L256.632,148.73C256.632,145.627 258.229,142.705 260.944,140.841C263.659,138.978 267.175,138.391 270.435,139.257C312.786,150.504 440.503,184.419 481.638,195.343C489.29,197.375 494.554,203.784 494.554,211.068C494.554,230.977 494.554,268.066 494.554,268.066L451.216,284.733L493.83,296.232C493.83,296.232 494.294,376.811 494.479,408.923Z"/>
            </g>
        </g>
    </g>
</svg>
